<svg width="215" height="53" viewBox="0 0 215 53" fill="none" xmlns="http://www.w3.org/2000/svg">
<path d="M0.768 52V1.6H24.384C30.432 1.6 35.04 2.8 38.208 5.2C41.376 7.552 42.96 10.72 42.96 14.704C42.96 17.392 42.336 19.696 41.088 21.616C39.84 23.488 38.16 24.952 36.048 26.008C33.984 27.016 31.728 27.52 29.28 27.52L30.576 24.928C33.408 24.928 35.952 25.456 38.208 26.512C40.464 27.52 42.24 29.008 43.536 30.976C44.88 32.944 45.552 35.392 45.552 38.32C45.552 42.64 43.896 46 40.584 48.4C37.272 50.8 32.352 52 25.824 52H0.768ZM10.128 44.656H25.248C28.752 44.656 31.44 44.08 33.312 42.928C35.184 41.776 36.12 39.928 36.12 37.384C36.12 34.888 35.184 33.064 33.312 31.912C31.44 30.712 28.752 30.112 25.248 30.112H9.408V22.84H23.376C26.64 22.84 29.136 22.264 30.864 21.112C32.64 19.96 33.528 18.232 33.528 15.928C33.528 13.576 32.64 11.824 30.864 10.672C29.136 9.52 26.64 8.944 23.376 8.944H10.128V44.656ZM79.1574 52.72C75.2214 52.72 71.5974 52.072 68.2854 50.776C64.9734 49.48 62.0934 47.68 59.6454 45.376C57.1974 43.024 55.3014 40.288 53.9574 37.168C52.6134 34 51.9414 30.544 51.9414 26.8C51.9414 23.056 52.6134 19.624 53.9574 16.504C55.3014 13.336 57.1974 10.6 59.6454 8.296C62.0934 5.944 64.9734 4.12 68.2854 2.824C71.5974 1.528 75.1974 0.879997 79.0854 0.879997C83.0214 0.879997 86.6214 1.528 89.8854 2.824C93.1974 4.12 96.0774 5.944 98.5254 8.296C100.973 10.6 102.869 13.336 104.213 16.504C105.557 19.624 106.229 23.056 106.229 26.8C106.229 30.544 105.557 34 104.213 37.168C102.869 40.336 100.973 43.072 98.5254 45.376C96.0774 47.68 93.1974 49.48 89.8854 50.776C86.6214 52.072 83.0454 52.72 79.1574 52.72ZM79.0854 44.512C81.6294 44.512 83.9814 44.08 86.1414 43.216C88.3014 42.352 90.1734 41.128 91.7574 39.544C93.3414 37.912 94.5654 36.04 95.4294 33.928C96.3414 31.768 96.7974 29.392 96.7974 26.8C96.7974 24.208 96.3414 21.856 95.4294 19.744C94.5654 17.584 93.3414 15.712 91.7574 14.128C90.1734 12.496 88.3014 11.248 86.1414 10.384C83.9814 9.52 81.6294 9.088 79.0854 9.088C76.5414 9.088 74.1894 9.52 72.0294 10.384C69.9174 11.248 68.0454 12.496 66.4134 14.128C64.8294 15.712 63.5814 17.584 62.6694 19.744C61.8054 21.856 61.3734 24.208 61.3734 26.8C61.3734 29.344 61.8054 31.696 62.6694 33.856C63.5814 36.016 64.8294 37.912 66.4134 39.544C67.9974 41.128 69.8694 42.352 72.0294 43.216C74.1894 44.08 76.5414 44.512 79.0854 44.512ZM116.151 52V1.6H138.183C143.655 1.6 148.455 2.656 152.583 4.768C156.711 6.88 159.927 9.808 162.231 13.552C164.535 17.296 165.687 21.712 165.687 26.8C165.687 31.84 164.535 36.256 162.231 40.048C159.927 43.792 156.711 46.72 152.583 48.832C148.455 50.944 143.655 52 138.183 52H116.151ZM125.511 44.08H137.751C141.543 44.08 144.807 43.36 147.543 41.92C150.327 40.48 152.463 38.464 153.951 35.872C155.487 33.28 156.255 30.256 156.255 26.8C156.255 23.296 155.487 20.272 153.951 17.728C152.463 15.136 150.327 13.12 147.543 11.68C144.807 10.24 141.543 9.52 137.751 9.52H125.511V44.08ZM185.84 52V32.056L187.928 37.816L166.039 1.6H176.048L193.616 30.76H188L205.712 1.6H214.928L193.04 37.816L195.2 32.056V52H185.84Z" fill="#78D141"/>
</svg>
